<svg width="319" height="307" viewBox="0 0 319 307" fill="none" xmlns="http://www.w3.org/2000/svg">
<circle cx="156.681" cy="156.681" r="150.47" fill="black"/>
<circle cx="156.681" cy="156.681" r="137.604" fill="#BDC9D4"/>
<circle cx="156.681" cy="156.681" r="137.604" fill="#BDC9D4"/>
<circle cx="156.681" cy="156.681" r="137.604" fill="#BDC9D4"/>
<ellipse cx="154.144" cy="146.451" rx="137.604" ry="127.064" transform="rotate(-13.9283 154.144 146.451)" fill="#FBF9F3"/>
<ellipse cx="249.415" cy="178.426" rx="21.9552" ry="17.3404" transform="rotate(-20.1103 249.415 178.426)" fill="#F8D9D5"/>
<ellipse cx="127.115" cy="54.5233" rx="11.2722" ry="8.43019" transform="rotate(-33.6027 127.115 54.5233)" fill="#DDDEDB"/>
<ellipse cx="65.2888" cy="86.3099" rx="7.97098" ry="5.03431" transform="rotate(-33.9711 65.2888 86.3099)" fill="#DDDEDB"/>
<ellipse cx="234.727" cy="84.8141" rx="11.0475" ry="7.13193" transform="rotate(33.319 234.727 84.8141)" fill="#DDDEDB"/>
<ellipse cx="102.183" cy="233.409" rx="24.8918" ry="18.4591" transform="rotate(26.528 102.183 233.409)" fill="#DDDEDB"/>
<ellipse cx="61.1564" cy="178.297" rx="22.6226" ry="17.9673" transform="rotate(33.5639 61.1564 178.297)" fill="#F8D9D5"/>
<path d="M97.7379 153.674C97.7379 143.396 90.8157 137.663 81.726 137.663C73.6152 137.663 64.8052 146.473 64.8052 153.674C64.8052 160.597 66.9028 162.275 70.8184 162.275H89.3579C91.8052 162.275 97.7379 160.397 97.7379 153.674Z" fill="black"/>
<path d="M215.845 153.674C215.845 143.396 222.767 137.663 231.857 137.663C239.967 137.663 248.777 146.473 248.777 153.674C248.777 160.597 246.68 162.275 242.764 162.275H224.225C221.777 162.275 215.845 160.397 215.845 153.674Z" fill="black"/>
<path d="M171.784 165.91C171.784 172.623 165.771 180.594 155.422 180.594C144.515 180.594 138.781 170.945 138.781 165.91C138.781 160.876 136.264 160.387 133.887 160.387C131.882 159.851 128.573 160.932 129.132 169.546C129.831 180.314 141.438 191.362 157.8 191.362C175.979 191.362 182.692 172.343 182.692 165.91C182.692 162.274 179.755 160.387 177.308 160.387C174.86 160.387 171.784 161.715 171.784 165.91Z" fill="black"/>
</svg>
