<svg width="47" height="47" viewBox="0 0 47 47" fill="none" xmlns="http://www.w3.org/2000/svg">
  <path d="M31.5 35.25C24.0375 35.25 18 29.2125 18 21.75C18 17.1937 20.0625 13.125 23.3438 10.5C15.6938 11.0625 9.75 17.3813 9.75 25.125C9.75 33.15 16.2188 39.75 24.375 39.75C32.1187 39.75 38.4375 33.8062 39 26.1562C36.375 29.4375 32.3063 31.5 27.75 31.5C27 31.5 26.25 31.4062 25.5 31.3125C27.375 33.1875 29.8125 34.3125 32.4375 34.3125C33.1875 34.3125 33.9375 34.2187 34.6875 34.0312C33.75 34.7812 32.625 35.25 31.5 35.25Z" fill="#001A72"/>
  <path d="M32.4375 28.5C35.8125 28.5 38.625 25.6875 38.625 22.3125C38.625 18.9375 35.8125 16.125 32.4375 16.125C29.0625 16.125 26.25 18.9375 26.25 22.3125C26.25 25.6875 29.0625 28.5 32.4375 28.5Z" fill="#001A72"/>
  <path d="M33.375 21.375C34.3125 21.375 35.0625 20.625 35.0625 19.6875C35.0625 18.75 34.3125 18 33.375 18C32.4375 18 31.6875 18.75 31.6875 19.6875C31.6875 20.625 32.4375 21.375 33.375 21.375Z" fill="white"/>
</svg>
