<svg width="47" height="25" viewBox="0 0 47 25" fill="none" xmlns="http://www.w3.org/2000/svg">
<g clip-path="url(#clip0_2_550)">
<path fill-rule="evenodd" clip-rule="evenodd" d="M0.575378 0.0757751H1.14095H38.7328H38.9679L39.1338 0.24327L46.1469 7.3266L46.3114 7.49283V7.72729V24.2424V24.8106H45.7459H8.19177H7.9575L7.79185 24.6442L0.741031 17.5609L0.575378 17.3945V17.1591V0.643957V0.0757751ZM1.70653 2.01567V16.9238L7.62618 22.8707V7.96262L1.70653 2.01567ZM2.50637 1.21214L8.42604 7.15911H44.3856L38.4976 1.21214H2.50637ZM45.1803 23.6743H8.75733V8.29548H45.1803V23.6743Z" fill="#001A72"/>
<path d="M17.9197 17.6137C17.9197 18.8637 17.1279 19.9243 15.1295 19.9243C14.2623 19.9243 13.5836 19.7349 12.9426 19.4697V17.7652C13.5836 18.1061 14.3754 18.2955 15.0918 18.2955C15.7328 18.2955 16.0721 18.1061 16.0721 17.7273C16.0721 16.5909 12.9426 16.9318 12.9426 14.5833C12.9426 13.144 14.1115 12.2349 15.6951 12.2349C16.3738 12.2349 16.9771 12.3864 17.618 12.7652V14.5833C16.7508 14.053 16.1475 13.8637 15.6574 13.8637C15.0541 13.8637 14.7525 14.0909 14.7525 14.4318C14.7148 15.5303 17.9197 15.1137 17.9197 17.6137Z" fill="#001A72"/>
<path d="M30.4 12.4242L28.0246 19.7727H26.2147L24.6311 14.697L23.0098 19.7348H21.2L18.8246 12.3864H20.8607L22.1803 17.3106L23.7262 12.3864H25.5361L27.082 17.3106L28.4016 12.3864H30.4V12.4242Z" fill="#001A72"/>
<path d="M41.7492 14.9243V19.7727H39.9394V15.2273C39.9394 14.4318 39.3738 13.9773 38.7705 13.9773C38.1295 13.9773 37.6017 14.4318 37.6017 15.2273V19.7727H35.7918V15.2273C35.7918 14.4318 35.2263 13.9773 34.623 13.9773C33.982 13.9773 33.4541 14.4318 33.4541 15.2273V19.7727H31.6443V12.4243H33.341V12.9546C33.8689 12.4243 34.4345 12.2349 35.1131 12.2349C35.8672 12.2349 36.5459 12.5758 36.9984 13.1818C37.6017 12.5379 38.3558 12.2349 39.223 12.2349C40.6935 12.2727 41.7492 13.3333 41.7492 14.9243Z" fill="#001A72"/>
</g>
<defs>
<clipPath id="clip0_2_550">
<rect width="46" height="25" fill="white" transform="translate(0.5)"/>
</clipPath>
</defs>
</svg>
