<svg width="1045" height="297" viewBox="0 0 1045 297" fill="none" xmlns="http://www.w3.org/2000/svg">
<path d="M36.4331 101.021L53.5816 3.46289H85.0891C91.9674 3.46289 97.5145 4.63563 101.73 6.94939C105.946 9.26314 108.989 12.3693 110.859 16.2044C112.729 20.0713 113.522 24.3184 113.237 28.9459C113.046 35.2532 111.335 40.7999 108.07 45.5859C104.805 50.3719 100.304 54.0802 94.5667 56.7426C88.7977 59.405 82.1095 60.7045 74.502 60.7045H55.2615L48.1613 100.989H36.4648L36.4331 101.021ZM56.9098 51.5446H75.865C83.4725 51.5446 89.5584 49.6428 94.0595 45.8394C98.5606 42.036 100.97 36.7429 101.223 29.9602C101.508 25.2059 100.177 21.2756 97.2609 18.1061C94.3448 14.9366 89.3999 13.3518 82.4265 13.3518H63.598L56.9098 51.5446ZM88.9562 101.021L75.1677 57.4082H87.4347L101.794 101.021H88.9879H88.9562Z" fill="#001A72"/>
<path d="M149.309 102.701C143.445 102.701 138.373 101.401 134.062 98.8024C129.751 96.2034 126.486 92.5267 124.299 87.8042C122.112 83.0499 121.161 77.5349 121.446 71.2275C121.732 65.2054 122.936 59.6271 125.06 54.5875C127.184 49.5163 130.1 45.0789 133.777 41.2755C137.454 37.472 141.701 34.4927 146.519 32.3691C151.337 30.2455 156.599 29.168 162.273 29.168C168.581 29.168 173.811 30.4674 177.963 33.0664C182.084 35.6654 185.127 39.1202 187.092 43.4625C189.058 47.773 189.882 52.559 189.596 57.757C189.501 59.3418 189.279 61.1167 188.962 63.1135C188.645 65.1103 188.297 66.9486 187.916 68.6285H130.512L132.033 59.5637H178.027C178.661 55.1897 178.312 51.5131 176.917 48.4704C175.523 45.4593 173.431 43.1138 170.641 41.4974C167.852 39.8809 164.523 39.0569 160.593 39.0569C156.662 39.0569 152.764 39.976 149.087 41.7826C145.41 43.5892 142.24 46.2517 139.546 49.7381C136.851 53.2246 135.045 57.5669 134.125 62.7649L133.428 66.6634C132.414 71.8614 132.509 76.4572 133.713 80.4508C134.918 84.4444 137.042 87.5189 140.053 89.6424C143.064 91.766 146.773 92.8437 151.147 92.8437C156.06 92.8437 160.308 91.7661 163.89 89.5791C167.471 87.3921 170.261 84.4444 172.321 80.7361H183.891C181.926 84.9199 179.326 88.6916 176.03 92.0196C172.733 95.3793 168.834 97.9783 164.333 99.88C159.832 101.782 154.824 102.733 149.34 102.733L149.309 102.701Z" fill="#001A72"/>
<path d="M220.375 102.701C215.176 102.701 210.929 101.782 207.632 99.9755C204.335 98.1688 201.927 95.76 200.468 92.7172C198.979 89.7062 198.345 86.4733 198.503 83.0185C198.693 78.0107 200.215 73.6684 203.099 70.0552C205.984 66.4419 209.978 63.6527 215.081 61.6876C220.184 59.7225 226.048 58.7717 232.642 58.7717H251.185C251.914 54.3026 251.914 50.626 251.121 47.6783C250.329 44.7624 248.776 42.5754 246.462 41.1174C244.148 39.6911 241.105 38.9621 237.396 38.9621C232.927 38.9621 228.901 40.0715 225.288 42.3218C221.674 44.5405 219.075 47.8368 217.49 52.2107H205.35C206.84 47.2029 209.28 42.9874 212.672 39.596C216.064 36.2046 220.026 33.6056 224.59 31.799C229.155 29.9924 233.941 29.0732 238.949 29.0732C245.257 29.0732 250.392 30.246 254.354 32.6231C258.317 35.0002 261.011 38.2965 262.437 42.512C263.864 46.7275 264.086 51.7353 263.071 57.5039L255.559 100.99H244.972L246.493 88.5969C245.194 90.562 243.672 92.3686 241.961 94.1118C240.249 95.8234 238.315 97.3447 236.192 98.6442C234.068 99.9437 231.691 100.958 229.091 101.655C226.492 102.353 223.608 102.701 220.438 102.701H220.375ZM223.861 92.8123C227.126 92.8123 230.232 92.1468 233.275 90.7839C236.287 89.4527 238.981 87.6143 241.358 85.2688C243.736 82.9551 245.638 80.3561 247.064 77.4718C248.49 74.5876 249.283 71.5766 249.378 68.407L249.505 67.8365H231.944C227.57 67.8365 223.83 68.407 220.723 69.5798C217.617 70.7525 215.24 72.3689 213.623 74.4607C212.006 76.5526 211.087 79.0249 210.897 81.9091C210.707 85.2688 211.721 87.8996 213.972 89.8647C216.222 91.8298 219.487 92.7806 223.861 92.7806V92.8123Z" fill="#001A72"/>
<path d="M306.371 102.701C300.506 102.701 295.371 101.37 290.902 98.7394C286.433 96.077 283.073 92.4004 280.79 87.6778C278.508 82.9235 277.526 77.4085 277.779 71.1012C278.064 64.984 279.301 59.3423 281.551 54.2394C283.77 49.1365 286.813 44.7307 290.617 40.9907C294.421 37.2824 298.763 34.3664 303.644 32.2745C308.526 30.1826 313.756 29.1367 319.335 29.1367C327.703 29.1367 334.328 31.3554 339.209 35.761C344.091 40.1666 346.627 46.0937 346.817 53.5421H334.835C334.74 48.7878 333.06 45.2379 329.763 42.7974C326.467 40.3885 322.441 39.1842 317.718 39.1842C312.995 39.1842 308.272 40.4836 304.215 43.0826C300.126 45.6816 296.798 49.2949 294.262 53.8907C291.694 58.4865 290.3 63.9064 290.015 70.1186C289.824 73.7319 290.141 76.9648 290.997 79.8174C291.821 82.6382 293.089 85.0155 294.769 86.9172C296.449 88.8189 298.414 90.2768 300.697 91.3228C302.979 92.337 305.515 92.8442 308.304 92.8442C311.474 92.8442 314.517 92.2737 317.433 91.1643C320.349 90.055 322.98 88.4385 325.294 86.2832C327.608 84.1596 329.383 81.4972 330.588 78.3277H342.569C340.794 83.0503 338.163 87.2658 334.613 90.9424C331.095 94.6191 326.911 97.5034 322.061 99.5953C317.243 101.687 312.013 102.733 306.466 102.733L306.371 102.701Z" fill="#001A72"/>
<path d="M382.318 101.021C377.564 101.021 373.76 100.292 370.907 98.8026C368.023 97.3129 366.089 94.9991 365.138 91.8296C364.156 88.66 364.092 84.6348 364.916 79.6903L371.89 40.6735H360.605L362.412 30.7845H373.697L378.166 13.7959H388.468L385.393 30.7845H405.87L404.063 40.6735H383.586L376.613 79.6903C375.852 84.0643 376.296 87.0436 377.881 88.5967C379.466 90.1814 382.255 90.9738 386.249 90.9738H395.156L393.349 101.021H382.35H382.318Z" fill="#001A72"/>
<path d="M448.788 101.021L465.937 3.46289H477.633L515.829 82.3207L529.617 3.46289H541.314L524.165 101.021H512.469L474.431 22.1631L460.485 101.021H448.788Z" fill="#001A72"/>
<path d="M566.83 102.701C561.632 102.701 557.384 101.782 554.088 99.9755C550.791 98.1688 548.382 95.76 546.924 92.7172C545.434 89.7062 544.8 86.4733 544.959 83.0185C545.149 78.0107 546.67 73.6684 549.555 70.0552C552.439 66.4419 556.433 63.6527 561.537 61.6876C566.64 59.7225 572.504 58.7717 579.097 58.7717H597.64C598.369 54.3026 598.369 50.626 597.577 47.6783C596.784 44.7624 595.231 42.5754 592.917 41.1174C590.603 39.6911 587.56 38.9621 583.852 38.9621C579.382 38.9621 575.357 40.0715 571.712 42.3218C568.098 44.5405 565.499 47.8368 563.914 52.2107H551.774C553.264 47.2029 555.704 42.9874 559.096 39.596C562.488 36.2046 566.45 33.6056 571.014 31.799C575.579 29.9924 580.365 29.0732 585.373 29.0732C591.681 29.0732 596.816 30.246 600.778 32.6231C604.741 35.0002 607.435 38.2965 608.861 42.512C610.288 46.7275 610.51 51.7353 609.495 57.5039L601.983 100.99H591.396L592.917 88.5969C591.618 90.562 590.096 92.3686 588.385 94.1118C586.673 95.8234 584.739 97.3447 582.616 98.6442C580.492 99.9437 578.114 100.958 575.515 101.655C572.916 102.353 570.032 102.701 566.862 102.701H566.83ZM570.317 92.8123C573.582 92.8123 576.688 92.1468 579.731 90.7839C582.742 89.4527 585.437 87.6143 587.814 85.2688C590.191 82.9551 592.093 80.3561 593.52 77.4718C594.946 74.5876 595.738 71.5766 595.834 68.407L595.96 67.8365H578.4C574.026 67.8365 570.285 68.407 567.179 69.5798C564.072 70.7525 561.695 72.3689 560.079 74.4607C558.462 76.5526 557.543 79.0249 557.353 81.9091C557.162 85.2688 558.177 87.8996 560.427 89.8647C562.678 91.8298 565.943 92.7806 570.317 92.7806V92.8123Z" fill="#001A72"/>
<path d="M648.769 101.021C644.014 101.021 640.211 100.292 637.326 98.8026C634.442 97.3129 632.508 94.9991 631.557 91.8296C630.575 88.66 630.511 84.6348 631.335 79.6903L638.309 40.6735H627.024L628.831 30.7845H640.116L644.585 13.7959H654.887L651.812 30.7845H672.289L670.482 40.6735H650.005L643.032 79.6903C642.303 84.0643 642.715 87.0436 644.3 88.5967C645.885 90.1814 648.674 90.9738 652.668 90.9738H661.575L659.768 101.021H648.769Z" fill="#001A72"/>
<path d="M676.377 101.021L688.771 30.7844H700.468L688.074 101.021H676.377ZM698.661 15.8877C696.347 15.8877 694.445 15.1586 692.955 13.669C691.466 12.1793 690.673 10.2776 690.578 7.96385C690.578 5.6501 691.339 3.74832 692.892 2.25865C694.413 0.768972 696.347 0.0400391 698.661 0.0400391C700.975 0.0400391 702.782 0.768972 704.367 2.25865C705.951 3.74832 706.744 5.6501 706.744 7.96385C706.839 10.2776 706.078 12.1793 704.43 13.669C702.813 15.1586 700.88 15.8877 698.661 15.8877Z" fill="#001A72"/>
<path d="M729.883 101.021L714.827 30.7842H726.935L738.632 89.8641L771.09 30.7842H783.357L743.513 101.021H729.851H729.883Z" fill="#001A72"/>
<path d="M812.519 102.701C806.655 102.701 801.583 101.401 797.273 98.8024C792.962 96.2034 789.697 92.5267 787.51 87.8042C785.322 83.0499 784.372 77.5349 784.657 71.2275C784.942 65.2054 786.147 59.6271 788.27 54.5875C790.394 49.5163 793.31 45.0789 796.987 41.2755C800.664 37.472 804.912 34.4927 809.73 32.3691C814.548 30.2455 819.81 29.168 825.483 29.168C831.791 29.168 837.021 30.4674 841.174 33.0664C845.295 35.6654 848.337 39.1202 850.303 43.4625C852.268 47.773 853.092 52.559 852.807 57.757C852.712 59.3418 852.49 61.1167 852.173 63.1135C851.856 65.1103 851.507 66.9486 851.127 68.6285H793.722L795.244 59.5637H841.237C841.871 55.1897 841.522 51.5131 840.128 48.4704C838.733 45.4593 836.641 43.1138 833.852 41.4974C831.062 39.8809 827.734 39.0569 823.803 39.0569C819.873 39.0569 815.974 39.976 812.297 41.7826C808.62 43.5892 805.45 46.2517 802.756 49.7381C800.062 53.2246 798.255 57.5669 797.336 62.7649L796.639 66.6634C795.624 71.8614 795.719 76.4572 796.924 80.4508C798.128 84.4444 800.252 87.5189 803.263 89.6424C806.275 91.766 809.983 92.8437 814.358 92.8437C819.271 92.8437 823.518 91.7661 827.1 89.5791C830.682 87.3921 833.471 84.4444 835.532 80.7361H847.101C845.136 84.9199 842.537 88.6916 839.24 92.0196C835.944 95.3793 832.045 97.9783 827.544 99.88C823.043 101.782 818.034 102.733 812.551 102.733L812.519 102.701Z" fill="#001A72"/>
<path d="M0.963379 294.362L23.437 167.55H105.502L101.699 189.293H46.7982L41.5364 219.72H90.8263L87.2127 240.195H37.7643L31.9637 272.619H86.864L83.0603 294.362H0.995059H0.963379Z" fill="#7394FF"/>
<path d="M96.2783 294.363L137.58 248.531L112.222 203.049H141.384L157.328 232.398L183.415 203.049H212.767L171.275 248.69L196.633 294.331H167.281L151.686 264.791L125.25 294.331H96.2466L96.2783 294.363Z" fill="#7394FF"/>
<path d="M251.882 296.518C243.292 296.518 235.97 294.838 229.884 291.446C223.798 288.055 219.17 283.269 216.032 277.057C212.894 270.844 211.499 263.681 211.88 255.599C212.228 247.992 213.877 240.892 216.761 234.3C219.645 227.707 223.608 221.907 228.616 216.899C233.624 211.891 239.52 207.961 246.272 205.108C253.023 202.288 260.535 200.861 268.745 200.861C276.955 200.861 284.214 202.541 290.109 205.932C296.037 209.324 300.475 213.951 303.422 219.783C306.37 225.647 307.67 232.43 307.321 240.163C307.194 242.826 306.909 245.488 306.402 248.119C305.927 250.781 305.388 253.19 304.785 255.377H230.867L233.751 239.434H280.315C280.79 235.948 280.41 232.937 279.142 230.465C277.874 227.992 276.036 226.059 273.627 224.664C271.218 223.27 268.301 222.572 264.942 222.572C261.074 222.572 257.429 223.492 253.974 225.298C250.519 227.105 247.539 229.862 245.004 233.539C242.468 237.216 240.788 241.843 239.932 247.39L239.013 252.651C238.284 256.867 238.442 260.67 239.457 263.966C240.471 267.294 242.341 269.862 245.067 271.668C247.793 273.475 251.248 274.394 255.496 274.394C259.489 274.394 262.881 273.602 265.734 272.049C268.555 270.496 270.964 268.435 272.898 265.9H300.792C297.907 271.573 294.008 276.771 289.095 281.494C284.214 286.217 278.571 289.893 272.232 292.556C265.892 295.218 259.109 296.549 251.85 296.549L251.882 296.518Z" fill="#7394FF"/>
<path d="M363.299 296.518C354.709 296.518 347.355 294.775 341.206 291.257C335.057 287.739 330.397 282.921 327.259 276.772C324.121 270.623 322.79 263.492 323.265 255.409C323.614 247.676 325.294 240.544 328.242 234.047C331.19 227.518 335.215 221.781 340.287 216.836C345.358 211.892 351.254 207.993 357.942 205.141C364.631 202.32 372.048 200.894 380.131 200.894C391.954 200.894 401.463 204.127 408.564 210.592C415.696 217.058 419.309 226.028 419.436 237.502H390.623C390.496 233.286 389.101 229.99 386.47 227.644C383.808 225.299 380.321 224.126 375.947 224.126C371.351 224.126 367.23 225.394 363.521 227.93C359.844 230.465 356.896 233.92 354.741 238.262C352.586 242.605 351.349 247.549 351.128 253.127C351.001 256.138 351.254 258.896 351.856 261.368C352.459 263.84 353.441 265.996 354.836 267.802C356.231 269.609 357.942 271.004 360.003 271.954C362.063 272.937 364.409 273.412 367.071 273.412C370.083 273.412 372.872 272.874 375.408 271.796C377.944 270.718 380.194 269.165 382.191 267.168C384.188 265.172 385.71 262.794 386.819 260.005H415.632C412.843 267.359 408.912 273.793 403.777 279.308C398.642 284.791 392.588 289.07 385.646 292.081C378.704 295.092 371.255 296.613 363.268 296.613L363.299 296.518Z" fill="#7394FF"/>
<path d="M464.954 296.518C456.998 296.518 450.658 294.838 446.031 291.447C441.371 288.055 438.296 283.333 436.807 277.216C435.285 271.13 435.19 263.904 436.521 255.568L445.777 203.049H472.783L464.098 252.874C463.02 259.625 463.496 264.791 465.556 268.373C467.617 271.923 471.642 273.729 477.697 273.729C481.564 273.729 485.114 272.873 488.379 271.194C491.643 269.514 494.401 267.073 496.715 263.84C498.997 260.639 500.519 256.741 501.248 252.145L509.775 203.049H536.939L520.996 294.363H497.254V280.607C493.64 285.33 489.139 289.165 483.751 292.112C478.362 295.06 472.118 296.55 464.986 296.55L464.954 296.518Z" fill="#7394FF"/>
<path d="M574.374 294.362L592.854 189.103H556.085L559.889 167.55H660.814L657.01 189.103H620.241L601.571 294.362H574.406H574.374Z" fill="#7394FF"/>
<path d="M686.711 296.518C678.375 296.518 671.147 294.68 665.062 291.003C658.976 287.326 654.348 282.223 651.21 275.694C648.072 269.165 646.677 261.875 647.057 253.761C647.406 246.281 649.023 239.308 651.844 232.842C654.665 226.376 658.564 220.798 663.54 216.075C668.485 211.353 674.222 207.644 680.752 204.919C687.282 202.193 694.16 200.83 701.419 200.83C709.882 200.83 717.141 202.637 723.259 206.25C729.344 209.863 734.036 214.871 737.301 221.274C740.565 227.676 741.96 235.093 741.453 243.555C741.199 251.162 739.646 258.167 736.73 264.569C733.846 270.972 729.883 276.518 724.875 281.241C719.867 285.963 714.13 289.672 707.663 292.398C701.197 295.123 694.223 296.486 686.743 296.486L686.711 296.518ZM690.325 272.968C694.667 272.968 698.534 271.764 701.926 269.355C705.318 266.946 708.012 263.587 710.072 259.308C712.133 255.029 713.274 250.084 713.527 244.538C713.876 240.195 713.464 236.551 712.259 233.571C711.055 230.624 709.248 228.342 706.839 226.788C704.43 225.235 701.577 224.443 698.312 224.443C694.097 224.443 690.261 225.679 686.806 228.151C683.351 230.624 680.625 233.983 678.565 238.199C676.504 242.414 675.3 247.39 674.951 253.064C674.824 257.184 675.363 260.702 676.568 263.65C677.772 266.598 679.579 268.911 681.988 270.528C684.397 272.144 687.187 272.968 690.325 272.968Z" fill="#7394FF"/>
<path d="M754.449 294.362L770.393 203.048H794.483L794.293 219.34C797.304 215.599 800.696 212.335 804.436 209.546C808.176 206.757 812.329 204.633 816.83 203.112C821.363 201.59 826.149 200.861 831.221 200.861L826.149 229.672H816.925C813.406 229.672 810.11 230.053 806.972 230.845C803.834 231.637 801.044 232.905 798.635 234.648C796.226 236.392 794.166 238.8 792.486 241.812C790.806 244.823 789.602 248.563 788.872 253.032L781.614 294.331H754.449V294.362Z" fill="#7394FF"/>
<path d="M875.47 296.518C866.88 296.518 859.526 294.775 853.377 291.257C847.228 287.739 842.568 282.921 839.43 276.772C836.292 270.623 834.961 263.492 835.436 255.409C835.785 247.676 837.465 240.544 840.413 234.047C843.361 227.518 847.386 221.781 852.458 216.836C857.529 211.892 863.425 207.993 870.113 205.141C876.833 202.32 884.219 200.894 892.302 200.894C904.125 200.894 913.634 204.127 920.735 210.592C927.867 217.058 931.48 226.028 931.607 237.502H902.794C902.667 233.286 901.272 229.99 898.641 227.644C895.979 225.299 892.492 224.126 888.118 224.126C883.522 224.126 879.401 225.394 875.692 227.93C872.015 230.465 869.067 233.92 866.912 238.262C864.725 242.605 863.52 247.549 863.298 253.127C863.172 256.138 863.425 258.896 864.027 261.368C864.63 263.84 865.612 265.996 867.007 267.802C868.402 269.609 870.113 271.004 872.174 271.954C874.234 272.937 876.58 273.412 879.242 273.412C882.254 273.412 885.043 272.874 887.579 271.796C890.115 270.718 892.365 269.165 894.362 267.168C896.359 265.172 897.881 262.794 898.99 260.005H927.803C925.014 267.359 921.083 273.793 915.948 279.308C910.813 284.791 904.759 289.07 897.817 292.081C890.875 295.092 883.426 296.613 875.439 296.613L875.47 296.518Z" fill="#7394FF"/>
<path d="M942.86 294.363L965.682 163.937H992.847L983.623 215.917C987.363 211.575 991.96 207.993 997.38 205.14C1002.8 202.319 1008.85 200.893 1015.51 200.893C1023.25 200.893 1029.43 202.51 1034.09 205.774C1038.75 209.039 1041.85 213.761 1043.4 219.91C1044.99 226.059 1044.99 233.603 1043.4 242.541L1034.18 294.363H1007.17L1016.05 244.918C1017.13 238.167 1016.59 232.937 1014.43 229.26C1012.25 225.584 1008.09 223.745 1001.94 223.745C998.077 223.745 994.527 224.696 991.262 226.566C987.997 228.436 985.271 231.004 983.116 234.268C980.929 237.533 979.376 241.463 978.393 246.059L970.056 294.426H942.892L942.86 294.363Z" fill="#7394FF"/>
</svg>
