<svg width="1045" height="298" viewBox="0 0 1045 298" fill="none" xmlns="http://www.w3.org/2000/svg">
<path d="M36.0474 101.865L53.1958 4.30713H84.7033C91.5817 4.30713 97.1288 5.47985 101.345 7.7936C105.56 10.1074 108.603 13.2135 110.474 17.0486C112.344 20.9154 113.136 25.1626 112.851 29.7901C112.661 36.0975 110.949 41.6441 107.684 46.4301C104.419 51.2161 99.9182 54.9244 94.1809 57.5868C88.412 60.2492 81.7237 61.5487 74.1163 61.5487H54.8758L47.7755 101.833H36.0791L36.0474 101.865ZM56.5241 52.3888H75.4793C83.0867 52.3888 89.1727 50.4871 93.6738 46.6837C98.1748 42.8802 100.584 37.5871 100.837 30.8043C101.123 26.0501 99.7914 22.1199 96.8752 18.9503C93.959 15.7808 89.0142 14.1961 82.0407 14.1961H63.2123L56.5241 52.3888ZM88.5704 101.865L74.7819 58.2524H87.049L101.408 101.865H88.6021H88.5704Z" fill="#E6EFFF"/>
<path d="M148.923 103.513C143.059 103.513 137.987 102.214 133.676 99.6149C129.365 97.0159 126.101 93.3392 123.913 88.6167C121.726 83.8624 120.775 78.3474 121.061 72.0401C121.346 66.018 122.55 60.4396 124.674 55.4001C126.798 50.3288 129.714 45.8915 133.391 42.088C137.068 38.2846 141.315 35.3053 146.133 33.1817C150.952 31.0581 156.213 29.9805 161.887 29.9805C168.195 29.9805 173.425 31.28 177.578 33.879C181.698 36.478 184.741 39.9328 186.706 44.275C188.672 48.5856 189.496 53.3716 189.211 58.5696C189.116 60.1543 188.894 61.9293 188.577 63.9261C188.26 65.9229 187.911 67.7612 187.531 69.441H130.126L131.648 60.3762H177.641C178.275 56.0023 177.926 52.3256 176.532 49.2829C175.137 46.2718 173.045 43.9264 170.255 42.3099C167.466 40.6935 164.138 39.8694 160.207 39.8694C156.277 39.8694 152.378 40.7886 148.701 42.5952C145.024 44.4018 141.854 47.0642 139.16 50.5507C136.466 54.0372 134.659 58.3794 133.74 63.5774L133.042 67.4759C132.028 72.674 132.123 77.2698 133.328 81.2634C134.532 85.257 136.656 88.3314 139.667 90.455C142.678 92.5786 146.387 93.6562 150.761 93.6562C155.674 93.6562 159.922 92.5786 163.504 90.3916C167.086 88.2046 169.875 85.257 171.935 81.5486H183.505C181.54 85.7324 178.941 89.5041 175.644 92.8321C172.347 96.1918 168.449 98.7908 163.948 100.693C159.446 102.594 154.438 103.545 148.955 103.545L148.923 103.513Z" fill="#E6EFFF"/>
<path d="M219.989 103.513C214.79 103.513 210.543 102.594 207.246 100.787C203.95 98.9809 201.541 96.572 200.083 93.5293C198.593 90.5182 197.959 87.2853 198.117 83.8306C198.308 78.8227 199.829 74.4805 202.714 70.8672C205.598 67.254 209.592 64.4648 214.695 62.4997C219.799 60.5346 225.663 59.5837 232.256 59.5837H250.799C251.528 55.1147 251.528 51.438 250.736 48.4904C249.943 45.5744 248.39 43.3874 246.076 41.9295C243.762 40.5032 240.719 39.7742 237.01 39.7742C232.541 39.7742 228.516 40.8835 224.902 43.1339C221.288 45.3525 218.689 48.6488 217.104 53.0228H204.964C206.454 48.0149 208.895 43.7995 212.286 40.4081C215.678 37.0167 219.64 34.4177 224.205 32.611C228.769 30.8044 233.555 29.8853 238.564 29.8853C244.872 29.8853 250.007 31.058 253.969 33.4351C257.931 35.8123 260.625 39.1086 262.052 43.3241C263.478 47.5395 263.7 52.5474 262.686 58.3159L255.173 101.802H244.586L246.108 89.4089C244.808 91.374 243.287 93.1807 241.575 94.9239C239.863 96.6354 237.93 98.1568 235.806 99.4563C233.682 100.756 231.305 101.77 228.706 102.467C226.106 103.165 223.222 103.513 220.052 103.513H219.989ZM223.476 93.6244C226.74 93.6244 229.847 92.9588 232.89 91.5959C235.901 90.2647 238.595 88.4263 240.973 86.0809C243.35 83.7671 245.252 81.1682 246.678 78.2839C248.105 75.3996 248.897 72.3886 248.992 69.2191L249.119 68.6485H231.558C227.184 68.6485 223.444 69.219 220.338 70.3918C217.231 71.5645 214.854 73.181 213.237 75.2729C211.621 77.3647 210.701 79.8369 210.511 82.7212C210.321 86.0809 211.335 88.7116 213.586 90.6767C215.836 92.6418 219.101 93.5927 223.476 93.5927V93.6244Z" fill="#E6EFFF"/>
<path d="M305.985 103.513C300.121 103.513 294.986 102.182 290.516 99.5514C286.047 96.889 282.687 93.2124 280.405 88.4898C278.122 83.7355 277.14 78.2205 277.393 71.9132C277.679 65.796 278.915 60.1543 281.165 55.0514C283.384 49.9484 286.427 45.5428 290.231 41.8027C294.035 38.0944 298.377 35.1784 303.259 33.0866C308.14 30.9947 313.37 29.9487 318.949 29.9487C327.317 29.9487 333.942 32.1674 338.824 36.573C343.705 40.9787 346.241 46.9057 346.431 54.3541H334.449C334.354 49.5998 332.674 46.0499 329.378 43.6094C326.081 41.2005 322.055 39.9961 317.333 39.9961C312.61 39.9961 307.887 41.2956 303.829 43.8946C299.74 46.4936 296.412 50.1069 293.876 54.7027C291.309 59.2985 289.914 64.7184 289.629 70.9306C289.439 74.5439 289.755 77.7768 290.611 80.6294C291.435 83.4503 292.703 85.8274 294.383 87.7291C296.063 89.6308 298.029 91.0888 300.311 92.1348C302.593 93.149 305.129 93.6561 307.918 93.6561C311.088 93.6561 314.131 93.0856 317.047 91.9763C319.963 90.867 322.594 89.2505 324.908 87.0952C327.222 84.9717 328.997 82.3093 330.202 79.1398H342.183C340.408 83.8623 337.777 88.0778 334.227 91.7544C330.709 95.4311 326.525 98.3153 321.675 100.407C316.857 102.499 311.627 103.545 306.08 103.545L305.985 103.513Z" fill="#E6EFFF"/>
<path d="M381.933 101.865C377.178 101.865 373.374 101.136 370.521 99.6467C367.637 98.1571 365.703 95.8433 364.752 92.6738C363.77 89.5043 363.706 85.479 364.531 80.5345L371.504 41.5177H360.22L362.026 31.6288H373.311L377.78 14.6401H388.082L385.007 31.6288H405.484L403.677 41.5177H383.201L376.227 80.5345C375.466 84.9085 375.91 87.8879 377.495 89.4409C379.08 91.0257 381.869 91.8181 385.863 91.8181H394.77L392.963 101.865H381.964H381.933Z" fill="#E6EFFF"/>
<path d="M448.402 101.865L465.551 4.30713H477.247L515.443 83.1649L529.231 4.30713H540.928L523.779 101.865H512.083L474.046 23.0073L460.099 101.865H448.402Z" fill="#E6EFFF"/>
<path d="M566.444 103.513C561.246 103.513 556.999 102.594 553.702 100.787C550.405 98.9809 547.996 96.572 546.538 93.5293C545.049 90.5182 544.415 87.2853 544.573 83.8306C544.763 78.8227 546.285 74.4805 549.169 70.8672C552.054 67.254 556.048 64.4648 561.151 62.4997C566.254 60.5346 572.118 59.5837 578.711 59.5837H597.255C597.984 55.1147 597.984 51.438 597.191 48.4904C596.399 45.5744 594.846 43.3874 592.532 41.9295C590.218 40.5032 587.175 39.7742 583.466 39.7742C578.997 39.7742 574.971 40.8835 571.326 43.1339C567.712 45.3525 565.113 48.6488 563.528 53.0228H551.388C552.878 48.0149 555.319 43.7995 558.71 40.4081C562.102 37.0167 566.064 34.4177 570.629 32.611C575.193 30.8044 579.979 29.8853 584.988 29.8853C591.295 29.8853 596.43 31.058 600.393 33.4351C604.355 35.8123 607.049 39.1086 608.476 43.3241C609.902 47.5395 610.124 52.5474 609.11 58.3159L601.597 101.802H591.01L592.532 89.4089C591.232 91.374 589.711 93.1807 587.999 94.9239C586.287 96.6354 584.354 98.1568 582.23 99.4563C580.106 100.756 577.729 101.77 575.13 102.467C572.53 103.165 569.646 103.513 566.476 103.513H566.444ZM569.931 93.6244C573.196 93.6244 576.302 92.9588 579.345 91.5959C582.357 90.2647 585.051 88.4263 587.428 86.0809C589.806 83.7671 591.707 81.1682 593.134 78.2839C594.56 75.3996 595.353 72.3886 595.448 69.2191L595.575 68.6485H578.014C573.64 68.6485 569.899 69.219 566.793 70.3918C563.687 71.5645 561.309 73.181 559.693 75.2729C558.076 77.3647 557.157 79.8369 556.967 82.7212C556.777 86.0809 557.791 88.7116 560.042 90.6767C562.292 92.6418 565.557 93.5927 569.931 93.5927V93.6244Z" fill="#E6EFFF"/>
<path d="M648.383 101.865C643.629 101.865 639.825 101.136 636.94 99.6467C634.056 98.1571 632.122 95.8433 631.171 92.6738C630.189 89.5043 630.125 85.479 630.95 80.5345L637.923 41.5177H626.639L628.445 31.6288H639.73L644.199 14.6401H654.501L651.426 31.6288H671.903L670.096 41.5177H649.619L642.646 80.5345C641.917 84.9085 642.329 87.8879 643.914 89.4409C645.499 91.0257 648.288 91.8181 652.282 91.8181H661.189L659.382 101.865H648.383Z" fill="#E6EFFF"/>
<path d="M675.96 101.865L688.354 31.6286H700.05L687.656 101.865H675.96ZM698.275 16.7002C695.961 16.7002 694.059 15.9712 692.57 14.4815C691.08 12.9918 690.287 11.0901 690.192 8.77635C690.192 6.4626 690.953 4.56087 692.506 3.0712C694.028 1.58152 695.961 0.852539 698.275 0.852539C700.589 0.852539 702.396 1.58152 703.981 3.0712C705.566 4.56087 706.358 6.4626 706.358 8.77635C706.453 11.0901 705.692 12.9918 704.044 14.4815C702.428 15.9712 700.494 16.7002 698.275 16.7002Z" fill="#E6EFFF"/>
<path d="M729.497 101.865L714.441 31.6284H726.549L738.246 90.7083L770.704 31.6284H782.971L743.127 101.865H729.466H729.497Z" fill="#E6EFFF"/>
<path d="M812.133 103.513C806.269 103.513 801.198 102.214 796.887 99.6149C792.576 97.0159 789.311 93.3392 787.124 88.6167C784.937 83.8624 783.986 78.3474 784.271 72.0401C784.556 66.018 785.761 60.4396 787.885 55.4001C790.008 50.3288 792.924 45.8915 796.601 42.088C800.278 38.2846 804.526 35.3053 809.344 33.1817C814.162 31.0581 819.424 29.9805 825.098 29.9805C831.405 29.9805 836.636 31.28 840.788 33.879C844.909 36.478 847.952 39.9328 849.917 44.275C851.882 48.5856 852.706 53.3716 852.421 58.5696C852.326 60.1543 852.104 61.9293 851.787 63.9261C851.47 65.9229 851.121 67.7612 850.741 69.441H793.337L794.858 60.3762H840.851C841.485 56.0023 841.137 52.3256 839.742 49.2829C838.347 46.2718 836.255 43.9264 833.466 42.3099C830.676 40.6935 827.348 39.8694 823.418 39.8694C819.487 39.8694 815.588 40.7886 811.911 42.5952C808.235 44.4018 805.065 47.0642 802.37 50.5507C799.676 54.0372 797.869 58.3794 796.95 63.5774L796.253 67.4759C795.238 72.674 795.334 77.2698 796.538 81.2634C797.743 85.257 799.866 88.3314 802.878 90.455C805.889 92.5786 809.597 93.6562 813.972 93.6562C818.885 93.6562 823.132 92.5786 826.714 90.3916C830.296 88.2046 833.085 85.257 835.146 81.5486H846.715C844.75 85.7324 842.151 89.5041 838.854 92.8321C835.558 96.1918 831.659 98.7908 827.158 100.693C822.657 102.594 817.649 103.545 812.165 103.545L812.133 103.513Z" fill="#E6EFFF"/>
<path d="M0.577637 295.175L23.0513 168.362H105.117L101.313 190.105H46.4124L41.1506 220.533H90.4405L86.827 241.008H37.3786L31.578 273.432H86.4783L82.6746 295.175H0.609317H0.577637Z" fill="#7394FF"/>
<path d="M95.8608 295.175L137.163 249.344L111.805 203.861H140.967L156.911 233.211L182.998 203.861H212.35L170.858 249.502L196.216 295.144H166.864L151.268 265.604L124.833 295.144H95.8291L95.8608 295.175Z" fill="#7394FF"/>
<path d="M251.496 297.362C242.906 297.362 235.584 295.682 229.498 292.291C223.412 288.9 218.784 284.114 215.646 277.901C212.508 271.689 211.113 264.526 211.494 256.444C211.842 248.837 213.491 241.737 216.375 235.144C219.26 228.552 223.222 222.752 228.23 217.744C233.238 212.736 239.134 208.806 245.886 205.953C252.637 203.132 260.15 201.706 268.359 201.706C276.569 201.706 283.828 203.386 289.724 206.777C295.651 210.169 300.089 214.796 303.037 220.628C305.985 226.492 307.284 233.274 306.936 241.008C306.809 243.671 306.523 246.333 306.016 248.964C305.541 251.626 305.002 254.035 304.4 256.222H230.481L233.365 240.279H279.929C280.405 236.793 280.024 233.782 278.756 231.309C277.488 228.837 275.65 226.904 273.241 225.509C270.832 224.115 267.916 223.417 264.556 223.417C260.689 223.417 257.043 224.336 253.588 226.143C250.133 227.95 247.154 230.707 244.618 234.384C242.082 238.06 240.402 242.688 239.546 248.235L238.627 253.496C237.898 257.712 238.056 261.515 239.071 264.811C240.085 268.139 241.955 270.707 244.681 272.513C247.407 274.32 250.862 275.239 255.11 275.239C259.104 275.239 262.495 274.447 265.348 272.894C268.169 271.34 270.578 269.28 272.512 266.745H300.406C297.521 272.418 293.623 277.616 288.709 282.339C283.828 287.061 278.186 290.738 271.846 293.4C265.507 296.063 258.723 297.394 251.465 297.394L251.496 297.362Z" fill="#7394FF"/>
<path d="M362.914 297.362C354.324 297.362 346.97 295.619 340.82 292.1C334.671 288.582 330.011 283.765 326.873 277.616C323.735 271.467 322.404 264.335 322.879 256.253C323.228 248.519 324.908 241.388 327.856 234.891C330.804 228.361 334.829 222.624 339.901 217.68C344.973 212.736 350.868 208.837 357.557 205.984C364.245 203.164 371.662 201.737 379.745 201.737C391.568 201.737 401.078 204.97 408.178 211.436C415.31 217.902 418.923 226.872 419.05 238.345H390.237C390.11 234.13 388.715 230.834 386.085 228.488C383.422 226.143 379.935 224.97 375.561 224.97C370.965 224.97 366.844 226.238 363.135 228.773C359.459 231.309 356.511 234.764 354.355 239.106C352.2 243.448 350.964 248.393 350.742 253.971C350.615 256.982 350.869 259.74 351.471 262.212C352.073 264.684 353.056 266.839 354.45 268.646C355.845 270.453 357.557 271.847 359.617 272.798C361.677 273.781 364.023 274.256 366.686 274.256C369.697 274.256 372.486 273.717 375.022 272.64C377.558 271.562 379.809 270.009 381.805 268.012C383.802 266.015 385.324 263.638 386.433 260.849H415.246C412.457 268.202 408.527 274.636 403.392 280.151C398.257 285.635 392.202 289.913 385.26 292.925C378.319 295.936 370.87 297.457 362.882 297.457L362.914 297.362Z" fill="#7394FF"/>
<path d="M464.568 297.362C456.612 297.362 450.273 295.682 445.645 292.291C440.985 288.899 437.911 284.177 436.421 278.059C434.899 271.974 434.804 264.747 436.136 256.412L445.391 203.893H472.398L463.713 253.717C462.635 260.469 463.11 265.635 465.171 269.216C467.231 272.766 471.257 274.573 477.311 274.573C481.178 274.573 484.728 273.717 487.993 272.037C491.258 270.357 494.016 267.917 496.329 264.684C498.612 261.483 500.133 257.584 500.862 252.988L509.389 203.893H536.554L520.61 295.207H496.868V281.451C493.255 286.173 488.754 290.009 483.365 292.956C477.976 295.904 471.732 297.394 464.6 297.394L464.568 297.362Z" fill="#7394FF"/>
<path d="M573.989 295.175L592.469 189.915H555.699L559.503 168.362H660.428L656.625 189.915H619.855L601.185 295.175H574.02H573.989Z" fill="#7394FF"/>
<path d="M686.294 297.362C677.957 297.362 670.73 295.523 664.644 291.847C658.558 288.17 653.93 283.067 650.792 276.538C647.654 270.009 646.259 262.719 646.64 254.605C646.988 247.125 648.605 240.152 651.426 233.686C654.247 227.22 658.146 221.642 663.123 216.919C668.067 212.197 673.805 208.488 680.334 205.763C686.864 203.037 693.743 201.674 701.001 201.674C709.465 201.674 716.723 203.48 722.841 207.094C728.927 210.707 733.618 215.715 736.883 222.117C740.148 228.52 741.543 235.936 741.035 244.399C740.782 252.006 739.229 259.011 736.313 265.413C733.428 271.815 729.466 277.362 724.458 282.085C719.449 286.807 713.712 290.516 707.246 293.241C700.779 295.967 693.806 297.33 686.325 297.33L686.294 297.362ZM689.939 273.812C694.281 273.812 698.149 272.608 701.54 270.199C704.932 267.79 707.626 264.43 709.687 260.152C711.747 255.873 712.888 250.928 713.142 245.382C713.49 241.039 713.078 237.394 711.874 234.415C710.669 231.467 708.862 229.185 706.453 227.632C704.044 226.079 701.191 225.287 697.927 225.287C693.711 225.287 689.875 226.523 686.42 228.995C682.965 231.467 680.239 234.827 678.179 239.043C676.119 243.258 674.914 248.234 674.565 253.908C674.439 258.028 674.978 261.546 676.182 264.494C677.387 267.441 679.193 269.755 681.602 271.372C684.011 272.988 686.801 273.812 689.939 273.812Z" fill="#7394FF"/>
<path d="M754.063 295.175L770.007 203.861H794.097L793.907 220.152C796.918 216.412 800.31 213.148 804.05 210.358C807.791 207.569 811.943 205.446 816.444 203.924C820.977 202.403 825.763 201.674 830.835 201.674L825.763 230.485H816.539C813.021 230.485 809.724 230.865 806.586 231.658C803.448 232.45 800.659 233.718 798.25 235.461C795.841 237.204 793.78 239.613 792.1 242.624C790.42 245.635 789.216 249.375 788.487 253.844L781.228 295.143H754.063V295.175Z" fill="#7394FF"/>
<path d="M875.085 297.362C866.495 297.362 859.141 295.619 852.992 292.1C846.842 288.582 842.183 283.765 839.045 277.616C835.907 271.467 834.575 264.335 835.051 256.253C835.4 248.519 837.08 241.388 840.027 234.891C842.975 228.361 847.001 222.624 852.073 217.68C857.144 212.736 863.04 208.837 869.728 205.984C876.448 203.164 883.834 201.737 891.917 201.737C903.74 201.737 913.249 204.97 920.349 211.436C927.481 217.902 931.095 226.872 931.222 238.345H902.408C902.282 234.13 900.887 230.834 898.256 228.488C895.593 226.143 892.107 224.97 887.732 224.97C883.136 224.97 879.016 226.238 875.307 228.773C871.63 231.309 868.682 234.764 866.527 239.106C864.34 243.448 863.135 248.393 862.913 253.971C862.786 256.982 863.04 259.74 863.642 262.212C864.244 264.684 865.227 266.839 866.622 268.646C868.016 270.453 869.728 271.847 871.788 272.798C873.849 273.781 876.194 274.256 878.857 274.256C881.868 274.256 884.658 273.717 887.194 272.64C889.729 271.562 891.98 270.009 893.977 268.012C895.974 266.015 897.495 263.638 898.605 260.849H927.418C924.629 268.202 920.698 274.636 915.563 280.151C910.428 285.635 904.374 289.913 897.432 292.925C890.49 295.936 883.041 297.457 875.053 297.457L875.085 297.362Z" fill="#7394FF"/>
<path d="M942.474 295.175L965.296 164.749H992.461L983.237 216.729C986.978 212.387 991.574 208.805 996.994 205.953C1002.41 203.132 1008.47 201.706 1015.13 201.706C1022.86 201.706 1029.04 203.322 1033.7 206.587C1038.36 209.851 1041.47 214.574 1043.02 220.723C1044.6 226.872 1044.6 234.415 1043.02 243.353L1033.8 295.175H1006.79L1015.66 245.73C1016.74 238.979 1016.2 233.75 1014.05 230.073C1011.86 226.396 1007.71 224.558 1001.56 224.558C997.692 224.558 994.141 225.509 990.876 227.379C987.611 229.249 984.886 231.816 982.73 235.081C980.543 238.345 978.99 242.276 978.007 246.871L969.671 295.238H942.506L942.474 295.175Z" fill="#7394FF"/>
</svg>
