<svg width="287" height="82" viewBox="0 0 287 82" fill="none" xmlns="http://www.w3.org/2000/svg">
<path d="M10.0701 27.78L14.7701 1.03003H23.4101C25.3001 1.03003 26.8201 1.35003 27.9801 1.99003C29.1401 2.63003 29.9701 3.47003 30.4801 4.53003C30.9901 5.59003 31.2101 6.75003 31.1301 8.03003C31.0801 9.76003 30.6101 11.29 29.7201 12.6C28.8301 13.91 27.5901 14.93 26.0101 15.66C24.4301 16.39 22.6001 16.75 20.5101 16.75H15.2401L13.2901 27.8H10.0801L10.0701 27.78ZM15.6801 14.22H20.8801C22.9701 14.22 24.6301 13.7 25.8701 12.65C27.1101 11.61 27.7601 10.15 27.8401 8.29003C27.9201 6.99003 27.5501 5.91003 26.7501 5.04003C25.9501 4.17003 24.5901 3.74003 22.6801 3.74003H17.5201L15.6901 14.21L15.6801 14.22ZM24.4701 27.78L20.6901 15.82H24.0501L27.9901 27.78H24.4701Z" fill="#DAE8FF"/>
<path d="M41.0201 28.24C39.4101 28.24 38.0201 27.88 36.8301 27.17C35.6501 26.46 34.7501 25.45 34.1501 24.15C33.5501 22.85 33.2901 21.33 33.3701 19.6C33.4501 17.94 33.7801 16.42 34.3601 15.03C34.9501 13.64 35.7401 12.42 36.7501 11.38C37.7601 10.34 38.9201 9.51998 40.2501 8.92999C41.5701 8.33999 43.0101 8.04999 44.5701 8.04999C46.3001 8.04999 47.7401 8.40999 48.8701 9.11999C50.0001 9.82999 50.8401 10.78 51.3701 11.97C51.9101 13.15 52.1301 14.46 52.0601 15.89C52.0301 16.32 51.9801 16.81 51.8901 17.36C51.8001 17.91 51.7001 18.41 51.6001 18.87H35.8501L36.2701 16.39H48.8801C49.0601 15.19 48.9601 14.18 48.5701 13.35C48.1901 12.52 47.6101 11.89 46.8501 11.44C46.0901 10.99 45.1701 10.77 44.1001 10.77C43.0301 10.77 41.9501 11.02 40.9501 11.52C39.9401 12.02 39.0701 12.74 38.3301 13.7C37.5901 14.66 37.0901 15.85 36.8401 17.27L36.6501 18.34C36.3701 19.77 36.3901 21.03 36.7301 22.12C37.0601 23.22 37.6401 24.06 38.4701 24.64C39.3001 25.23 40.3101 25.52 41.5101 25.52C42.8601 25.52 44.0301 25.22 45.0101 24.62C45.9901 24.02 46.7601 23.21 47.3201 22.19H50.4901C49.9501 23.34 49.2301 24.37 48.3301 25.29C47.4301 26.21 46.3601 26.93 45.1201 27.45C43.8801 27.97 42.5101 28.23 41.0101 28.23L41.0201 28.24Z" fill="#DAE8FF"/>
<path d="M60.5201 28.24C59.0901 28.24 57.9301 27.99 57.0201 27.49C56.1201 26.99 55.4601 26.33 55.0501 25.5C54.6401 24.67 54.4601 23.79 54.5101 22.84C54.5601 21.46 54.9801 20.28 55.7701 19.29C56.5601 18.3 57.6601 17.53 59.0601 17C60.4601 16.47 62.0701 16.2 63.8801 16.2H68.9601C69.1601 14.98 69.1601 13.96 68.9401 13.16C68.7201 12.36 68.3001 11.76 67.6601 11.36C67.0201 10.97 66.1901 10.77 65.1801 10.77C63.9601 10.77 62.8501 11.08 61.8501 11.69C60.8601 12.3 60.1401 13.21 59.7101 14.4H56.3801C56.7901 13.02 57.4601 11.87 58.3901 10.94C59.3201 10.01 60.4101 9.29999 61.6601 8.79999C62.9101 8.29999 64.2201 8.04999 65.6001 8.04999C67.3301 8.04999 68.7401 8.36998 69.8201 9.01998C70.9001 9.66998 71.6401 10.57 72.0401 11.73C72.4301 12.89 72.4901 14.26 72.2101 15.84L70.1501 27.76H67.2501L67.6701 24.36C67.3101 24.9 66.9001 25.4 66.4301 25.87C65.9601 26.34 65.4301 26.76 64.8401 27.11C64.2501 27.47 63.6001 27.74 62.8901 27.93C62.1801 28.12 61.3901 28.22 60.5201 28.22V28.24ZM61.4701 25.53C62.3601 25.53 63.2201 25.35 64.0501 24.98C64.8801 24.61 65.6201 24.11 66.2701 23.47C66.9201 22.83 67.4401 22.12 67.8401 21.33C68.2301 20.54 68.4501 19.71 68.4701 18.85L68.5101 18.7H63.6901C62.4901 18.7 61.4701 18.86 60.6101 19.18C59.7601 19.5 59.1101 19.94 58.6601 20.52C58.2101 21.09 57.9701 21.78 57.9101 22.56C57.8601 23.48 58.1401 24.2 58.7501 24.74C59.3601 25.28 60.2701 25.54 61.4601 25.54L61.4701 25.53Z" fill="#DAE8FF"/>
<path d="M84.1 28.24C82.49 28.24 81.0799 27.88 79.8599 27.15C78.6399 26.42 77.7099 25.41 77.0899 24.11C76.4699 22.81 76.19 21.29 76.27 19.56C76.35 17.88 76.69 16.34 77.3 14.94C77.91 13.54 78.7399 12.33 79.7799 11.31C80.8199 10.29 82.02 9.49 83.35 8.92C84.68 8.35 86.1199 8.06 87.6499 8.06C89.9399 8.06 91.76 8.67 93.1 9.88C94.44 11.09 95.1299 12.71 95.1799 14.75H91.8899C91.8599 13.45 91.4 12.47 90.49 11.81C89.59 11.15 88.4799 10.82 87.1799 10.82C85.8799 10.82 84.5899 11.18 83.4699 11.89C82.3499 12.6 81.44 13.59 80.74 14.85C80.04 16.11 79.65 17.6 79.57 19.3C79.52 20.29 79.6099 21.18 79.8399 21.96C80.0699 22.74 80.4099 23.39 80.8699 23.91C81.3299 24.43 81.87 24.83 82.49 25.11C83.11 25.39 83.81 25.53 84.57 25.53C85.44 25.53 86.27 25.38 87.07 25.07C87.87 24.76 88.5899 24.32 89.2299 23.73C89.8699 23.14 90.3499 22.42 90.6799 21.55H93.9699C93.49 22.85 92.7599 24 91.7899 25.01C90.8199 26.02 89.67 26.81 88.35 27.38C87.02 27.95 85.6 28.24 84.07 28.24H84.1Z" fill="#DAE8FF"/>
<path d="M104.93 27.78C103.63 27.78 102.59 27.58 101.8 27.17C101.01 26.76 100.48 26.13 100.21 25.26C99.94 24.39 99.9199 23.29 100.15 21.93L102.06 11.23H98.96L99.46 8.51998H102.56L103.78 3.85999H106.61L105.77 8.51998H111.39L110.89 11.23H105.27L103.36 21.93C103.16 23.13 103.27 23.94 103.7 24.38C104.13 24.81 104.9 25.03 105.99 25.03H108.44L107.94 27.78H104.92H104.93Z" fill="#DAE8FF"/>
<path d="M123.16 27.78L127.86 1.03003H131.07L141.54 22.66L145.32 1.03003H148.53L143.83 27.78H140.62L130.19 6.15003L126.37 27.78H123.16Z" fill="#DAE8FF"/>
<path d="M155.53 28.24C154.1 28.24 152.94 27.99 152.03 27.49C151.13 26.99 150.47 26.33 150.06 25.5C149.65 24.67 149.47 23.79 149.53 22.84C149.58 21.46 150 20.28 150.79 19.29C151.58 18.3 152.68 17.53 154.08 17C155.48 16.47 157.09 16.2 158.9 16.2H163.98C164.18 14.98 164.18 13.96 163.96 13.16C163.74 12.36 163.32 11.76 162.68 11.36C162.04 10.97 161.21 10.77 160.2 10.77C158.98 10.77 157.87 11.08 156.87 11.69C155.88 12.3 155.16 13.21 154.73 14.4H151.4C151.81 13.02 152.48 11.87 153.41 10.94C154.34 10.01 155.43 9.29999 156.68 8.79999C157.93 8.29999 159.24 8.04999 160.62 8.04999C162.35 8.04999 163.76 8.36998 164.84 9.01998C165.92 9.66998 166.66 10.57 167.06 11.73C167.45 12.89 167.51 14.26 167.23 15.84L165.17 27.76H162.27L162.69 24.36C162.33 24.9 161.92 25.4 161.45 25.87C160.98 26.34 160.45 26.76 159.86 27.11C159.27 27.47 158.62 27.74 157.91 27.93C157.2 28.12 156.41 28.22 155.54 28.22L155.53 28.24ZM156.49 25.53C157.38 25.53 158.24 25.35 159.07 24.98C159.9 24.61 160.64 24.11 161.29 23.47C161.94 22.83 162.46 22.12 162.86 21.33C163.25 20.54 163.47 19.71 163.49 18.85L163.53 18.7H158.71C157.51 18.7 156.49 18.86 155.63 19.18C154.78 19.5 154.13 19.94 153.68 20.52C153.23 21.09 152.99 21.78 152.93 22.56C152.88 23.48 153.16 24.2 153.77 24.74C154.38 25.28 155.29 25.54 156.48 25.54L156.49 25.53Z" fill="#DAE8FF"/>
<path d="M178 27.78C176.7 27.78 175.66 27.58 174.87 27.17C174.08 26.76 173.55 26.13 173.28 25.26C173.01 24.39 172.99 23.29 173.22 21.93L175.13 11.23H172.03L172.53 8.51998H175.63L176.85 3.85999H179.68L178.84 8.51998H184.46L183.96 11.23H178.34L176.43 21.93C176.23 23.13 176.34 23.94 176.77 24.38C177.2 24.81 177.97 25.03 179.06 25.03H181.51L181.01 27.78H177.99H178Z" fill="#DAE8FF"/>
<path d="M185.57 27.78L188.97 8.52H192.18L188.78 27.78H185.57ZM191.69 4.43001C191.05 4.43001 190.53 4.23001 190.12 3.82001C189.71 3.41001 189.5 2.89001 189.47 2.25001C189.47 1.61001 189.68 1.09001 190.1 0.680008C190.52 0.270008 191.05 0.0700073 191.69 0.0700073C192.33 0.0700073 192.82 0.270008 193.26 0.680008C193.69 1.09001 193.91 1.61001 193.91 2.25001C193.94 2.89001 193.72 3.41001 193.28 3.82001C192.83 4.23001 192.31 4.43001 191.69 4.43001Z" fill="#DAE8FF"/>
<path d="M200.25 27.78L196.12 8.52002H199.44L202.65 24.73L211.56 8.52002H214.92L203.99 27.78H200.24H200.25Z" fill="#DAE8FF"/>
<path d="M222.91 28.24C221.31 28.24 219.91 27.88 218.73 27.17C217.54 26.46 216.65 25.45 216.05 24.15C215.45 22.85 215.19 21.33 215.27 19.6C215.35 17.94 215.68 16.42 216.26 15.03C216.85 13.64 217.64 12.42 218.65 11.38C219.66 10.34 220.82 9.51998 222.15 8.92999C223.47 8.33999 224.91 8.04999 226.47 8.04999C228.2 8.04999 229.64 8.40999 230.77 9.11999C231.9 9.82999 232.74 10.78 233.27 11.97C233.8 13.15 234.03 14.46 233.96 15.89C233.93 16.32 233.88 16.81 233.79 17.36C233.7 17.91 233.6 18.41 233.5 18.87H217.75L218.17 16.39H230.78C230.96 15.19 230.86 14.18 230.47 13.35C230.09 12.52 229.51 11.89 228.75 11.44C227.99 10.99 227.07 10.77 226 10.77C224.93 10.77 223.85 11.02 222.85 11.52C221.84 12.02 220.97 12.74 220.23 13.7C219.49 14.66 218.99 15.85 218.74 17.27L218.55 18.34C218.27 19.77 218.3 21.03 218.63 22.12C218.96 23.22 219.54 24.06 220.37 24.64C221.2 25.23 222.21 25.52 223.41 25.52C224.76 25.52 225.93 25.22 226.91 24.62C227.89 24.02 228.66 23.21 229.22 22.19H232.39C231.85 23.34 231.13 24.37 230.23 25.29C229.33 26.21 228.26 26.93 227.02 27.45C225.78 27.97 224.41 28.23 222.91 28.23V28.24Z" fill="#DAE8FF"/>
<path d="M0.340088 80.81L6.50009 46.03H29.0101L27.9701 51.99H12.9101L11.4701 60.34H24.9801L23.9901 65.95H10.4301L8.84009 74.84H23.9001L22.8601 80.8H0.35009L0.340088 80.81Z" fill="url(#paint0_linear_51_71)"/>
<path d="M26.48 80.81L37.81 68.24L30.85 55.77H38.85L43.22 63.82L50.37 55.77H58.42L47.04 68.29L54 80.81H45.95L41.68 72.71L34.43 80.81H26.48Z" fill="url(#paint1_linear_51_71)"/>
<path d="M69.1602 81.41C66.8102 81.41 64.8002 80.95 63.1202 80.02C61.4502 79.09 60.1802 77.78 59.3202 76.07C58.4602 74.36 58.0802 72.4 58.1802 70.18C58.2802 68.09 58.7302 66.15 59.5202 64.34C60.3202 62.53 61.4002 60.94 62.7702 59.57C64.1402 58.2 65.7602 57.12 67.6102 56.34C69.4602 55.56 71.5202 55.17 73.7702 55.17C76.0202 55.17 78.0102 55.63 79.6302 56.56C81.2502 57.49 82.4702 58.76 83.2802 60.36C84.0902 61.97 84.4502 63.83 84.3502 65.95C84.3202 66.68 84.2302 67.41 84.1002 68.14C83.9702 68.87 83.8202 69.53 83.6502 70.13H63.3802L64.1802 65.76H76.9502C77.0802 64.8 76.9702 63.98 76.6302 63.3C76.2802 62.62 75.7802 62.09 75.1102 61.71C74.4502 61.33 73.6502 61.14 72.7302 61.14C71.6702 61.14 70.6702 61.39 69.7202 61.89C68.7802 62.39 67.9602 63.14 67.2602 64.15C66.5602 65.16 66.1002 66.43 65.8702 67.95L65.6202 69.39C65.4202 70.55 65.4602 71.59 65.7402 72.5C66.0202 73.41 66.5402 74.12 67.2802 74.61C68.0302 75.11 68.9802 75.36 70.1402 75.36C71.2302 75.36 72.1702 75.15 72.9502 74.71C73.7302 74.28 74.3802 73.72 74.9102 73.02H82.5602C81.7602 74.58 80.7002 76 79.3602 77.29C78.0202 78.58 76.4802 79.59 74.7402 80.32C73.0002 81.05 71.1402 81.41 69.1502 81.41H69.1602Z" fill="url(#paint2_linear_51_71)"/>
<path d="M99.7201 81.41C97.3701 81.41 95.3501 80.93 93.6601 79.97C91.9701 79.01 90.7001 77.68 89.8301 75.99C88.9701 74.3 88.6001 72.35 88.7401 70.13C88.8401 68.01 89.2901 66.06 90.1101 64.27C90.9201 62.48 92.0201 60.91 93.4101 59.55C94.8001 58.19 96.4201 57.12 98.2501 56.34C100.09 55.56 102.12 55.17 104.34 55.17C107.59 55.17 110.19 56.06 112.14 57.83C114.09 59.6 115.09 62.06 115.12 65.21H107.22C107.19 64.05 106.81 63.15 106.08 62.5C105.35 61.85 104.39 61.53 103.2 61.53C101.94 61.53 100.81 61.88 99.8001 62.57C98.7901 63.27 97.9901 64.21 97.3901 65.4C96.7901 66.59 96.46 67.95 96.4 69.47C96.37 70.3 96.4301 71.05 96.6001 71.73C96.7701 72.41 97.04 73 97.42 73.49C97.8 73.99 98.27 74.37 98.84 74.63C99.4 74.9 100.05 75.03 100.78 75.03C101.61 75.03 102.37 74.88 103.07 74.58C103.77 74.28 104.39 73.86 104.93 73.31C105.48 72.76 105.9 72.11 106.2 71.35H114.1C113.34 73.37 112.25 75.13 110.85 76.64C109.44 78.15 107.79 79.32 105.88 80.14C103.97 80.97 101.93 81.38 99.7401 81.38L99.7201 81.41Z" fill="url(#paint3_linear_51_71)"/>
<path d="M127.59 81.41C125.4 81.41 123.67 80.95 122.4 80.02C121.12 79.09 120.28 77.79 119.87 76.12C119.46 74.45 119.43 72.47 119.8 70.18L122.33 55.77H129.73L127.35 69.43C127.05 71.29 127.18 72.7 127.75 73.68C128.31 74.66 129.42 75.15 131.08 75.15C132.14 75.15 133.12 74.92 134.01 74.45C134.9 73.99 135.67 73.32 136.3 72.44C136.93 71.56 137.34 70.49 137.54 69.24L139.88 55.78H147.33L142.96 80.82H136.45V77.04C135.46 78.33 134.22 79.38 132.75 80.2C131.28 81.01 129.56 81.42 127.61 81.42L127.59 81.41Z" fill="url(#paint4_linear_51_71)"/>
<path d="M157.6 80.81L162.67 51.94H152.58L153.62 46.03H181.3L180.26 51.94H170.17L165.05 80.81H157.6Z" fill="url(#paint5_linear_51_71)"/>
<path d="M188.41 81.41C186.12 81.41 184.14 80.9 182.47 79.89C180.8 78.88 179.53 77.48 178.67 75.69C177.81 73.9 177.43 71.9 177.53 69.68C177.63 67.63 178.07 65.71 178.85 63.94C179.63 62.17 180.7 60.64 182.05 59.34C183.41 58.05 184.98 57.03 186.77 56.28C188.56 55.53 190.45 55.16 192.43 55.16C194.75 55.16 196.74 55.66 198.42 56.65C200.09 57.64 201.38 59.02 202.27 60.77C203.16 62.53 203.54 64.56 203.41 66.88C203.34 68.97 202.91 70.89 202.12 72.64C201.32 74.4 200.24 75.92 198.87 77.21C197.49 78.5 195.92 79.52 194.15 80.27C192.38 81.02 190.46 81.39 188.41 81.39V81.41ZM189.4 74.95C190.59 74.95 191.65 74.62 192.58 73.96C193.51 73.3 194.25 72.38 194.82 71.2C195.38 70.02 195.7 68.67 195.76 67.15C195.86 65.96 195.74 64.96 195.41 64.14C195.08 63.33 194.58 62.71 193.92 62.28C193.26 61.85 192.48 61.63 191.58 61.63C190.42 61.63 189.37 61.97 188.42 62.65C187.48 63.33 186.72 64.25 186.16 65.41C185.6 66.57 185.27 67.93 185.17 69.48C185.14 70.61 185.29 71.58 185.62 72.39C185.95 73.2 186.45 73.83 187.11 74.28C187.77 74.73 188.53 74.95 189.4 74.95Z" fill="url(#paint6_linear_51_71)"/>
<path d="M206.99 80.81L211.36 55.77H217.97L217.92 60.24C218.75 59.21 219.68 58.32 220.7 57.56C221.73 56.8 222.86 56.21 224.1 55.8C225.34 55.39 226.66 55.18 228.05 55.18L226.66 63.08H224.13C223.17 63.08 222.26 63.19 221.4 63.4C220.54 63.62 219.78 63.96 219.11 64.44C218.45 64.92 217.88 65.58 217.42 66.4C216.96 67.23 216.62 68.26 216.43 69.48L214.44 80.81H206.99Z" fill="url(#paint7_linear_51_71)"/>
<path d="M240.18 81.41C237.83 81.41 235.81 80.93 234.12 79.97C232.43 79.01 231.15 77.68 230.29 75.99C229.43 74.3 229.06 72.35 229.2 70.13C229.3 68.01 229.75 66.06 230.57 64.27C231.38 62.48 232.48 60.91 233.87 59.55C235.26 58.19 236.88 57.12 238.71 56.34C240.55 55.56 242.58 55.17 244.8 55.17C248.05 55.17 250.65 56.06 252.6 57.83C254.55 59.6 255.55 62.06 255.58 65.21H247.68C247.65 64.05 247.27 63.15 246.54 62.5C245.81 61.85 244.85 61.53 243.66 61.53C242.4 61.53 241.27 61.88 240.26 62.57C239.25 63.27 238.45 64.21 237.85 65.4C237.25 66.59 236.92 67.95 236.86 69.47C236.83 70.3 236.89 71.05 237.06 71.73C237.23 72.41 237.5 73 237.88 73.49C238.26 73.99 238.73 74.37 239.3 74.63C239.86 74.9 240.51 75.03 241.24 75.03C242.07 75.03 242.83 74.88 243.53 74.58C244.23 74.28 244.85 73.86 245.39 73.31C245.94 72.76 246.36 72.11 246.66 71.35H254.56C253.8 73.37 252.71 75.13 251.31 76.64C249.9 78.15 248.25 79.32 246.34 80.14C244.43 80.97 242.39 81.38 240.2 81.38L240.18 81.41Z" fill="url(#paint8_linear_51_71)"/>
<path d="M258.66 80.81L264.92 45.04H272.37L269.84 59.3C270.87 58.11 272.13 57.12 273.62 56.34C275.11 55.56 276.77 55.17 278.59 55.17C280.71 55.17 282.41 55.62 283.68 56.51C284.95 57.4 285.81 58.7 286.24 60.39C286.67 62.08 286.67 64.15 286.24 66.6L283.71 80.81H276.31L278.74 67.25C279.04 65.4 278.89 63.96 278.29 62.95C277.69 61.94 276.55 61.43 274.86 61.43C273.8 61.43 272.82 61.69 271.93 62.2C271.04 62.71 270.29 63.42 269.69 64.31C269.09 65.2 268.66 66.28 268.4 67.54L266.11 80.81H258.66Z" fill="url(#paint9_linear_51_71)"/>
<defs>
<linearGradient id="paint0_linear_51_71" x1="14.6751" y1="46.03" x2="14.6751" y2="80.81" gradientUnits="userSpaceOnUse">
<stop stop-color="#416BE6"/>
<stop offset="1" stop-color="#89AEFF"/>
</linearGradient>
<linearGradient id="paint1_linear_51_71" x1="42.45" y1="55.77" x2="42.45" y2="80.81" gradientUnits="userSpaceOnUse">
<stop stop-color="#416BE6"/>
<stop offset="1" stop-color="#89AEFF"/>
</linearGradient>
<linearGradient id="paint2_linear_51_71" x1="71.2655" y1="55.17" x2="71.2655" y2="81.41" gradientUnits="userSpaceOnUse">
<stop stop-color="#416BE6"/>
<stop offset="1" stop-color="#89AEFF"/>
</linearGradient>
<linearGradient id="paint3_linear_51_71" x1="101.916" y1="55.17" x2="101.916" y2="81.41" gradientUnits="userSpaceOnUse">
<stop stop-color="#416BE6"/>
<stop offset="1" stop-color="#89AEFF"/>
</linearGradient>
<linearGradient id="paint4_linear_51_71" x1="133.436" y1="55.77" x2="133.436" y2="81.42" gradientUnits="userSpaceOnUse">
<stop stop-color="#416BE6"/>
<stop offset="1" stop-color="#89AEFF"/>
</linearGradient>
<linearGradient id="paint5_linear_51_71" x1="166.94" y1="46.03" x2="166.94" y2="80.81" gradientUnits="userSpaceOnUse">
<stop stop-color="#416BE6"/>
<stop offset="1" stop-color="#89AEFF"/>
</linearGradient>
<linearGradient id="paint6_linear_51_71" x1="190.475" y1="55.16" x2="190.475" y2="81.41" gradientUnits="userSpaceOnUse">
<stop stop-color="#416BE6"/>
<stop offset="1" stop-color="#89AEFF"/>
</linearGradient>
<linearGradient id="paint7_linear_51_71" x1="217.52" y1="55.18" x2="217.52" y2="80.81" gradientUnits="userSpaceOnUse">
<stop stop-color="#416BE6"/>
<stop offset="1" stop-color="#89AEFF"/>
</linearGradient>
<linearGradient id="paint8_linear_51_71" x1="242.376" y1="55.17" x2="242.376" y2="81.41" gradientUnits="userSpaceOnUse">
<stop stop-color="#416BE6"/>
<stop offset="1" stop-color="#89AEFF"/>
</linearGradient>
<linearGradient id="paint9_linear_51_71" x1="272.611" y1="45.04" x2="272.611" y2="80.81" gradientUnits="userSpaceOnUse">
<stop stop-color="#416BE6"/>
<stop offset="1" stop-color="#89AEFF"/>
</linearGradient>
</defs>
</svg>
